<?xml version="1.0" encoding="UTF-8"?>
<svg width="70px" height="60px" viewBox="0 0 70 60" version="1.1" xmlns="http://www.w3.org/2000/svg" xmlns:xlink="http://www.w3.org/1999/xlink">
    <!-- Generator: Sketch 56.3 (81716) - https://sketch.com -->
    <title>Travel Immigration</title>
    <desc>Created with Sketch.</desc>
    <defs>
        <polygon id="path-1" points="0.174029825 0.111047887 4.34457895 0.111047887 4.34457895 44.696062 0.174029825 44.696062"></polygon>
        <polygon id="path-3" points="0 0.103014085 31.5437333 0.103014085 31.5437333 44.7042254 0 44.7042254"></polygon>
    </defs>
    <g id="Travel-Immigration" stroke="none" stroke-width="1" fill="none" fill-rule="evenodd">
        <g id="Group-19-Copy" transform="translate(17.000000, 7.000000)">
            <g id="Group-3" transform="translate(32.456140, 0.545132)">
                <mask id="mask-2" fill="white">
                    <use xlink:href="#path-1"></use>
                </mask>
                <g id="Clip-2"></g>
                <path d="M0.174029825,0.111047887 C1.13732807,1.31093521 1.71569649,2.83152676 1.71569649,4.48493521 L1.71569649,4.51732958 L1.71569649,40.2891324 L1.71569649,40.3215268 C1.71569649,41.9755831 1.13732807,43.4961746 0.174029825,44.696062 C2.49659123,44.5606535 4.34464386,42.6364282 4.34464386,40.2891324 L4.34464386,4.51732958 C4.34464386,2.17068169 2.49659123,0.245808451 0.174029825,0.111047887" id="Fill-1" fill="#00A4EC" mask="url(#mask-2)"></path>
            </g>
            <path d="M13.6198947,17.7015127 C13.7250526,19.4851465 14.0405263,21.1554 14.5215263,22.4155408 C15.059,23.8234 15.6263333,24.2607239 15.7717368,24.2607239 C15.9177895,24.2607239 16.4844737,23.8234 17.0219474,22.4155408 C17.5029474,21.1554 17.8184211,19.4851465 17.9235789,17.7015127 L13.6198947,17.7015127 Z" id="Fill-4" fill="#00A4EC"></path>
            <path d="M15.7719965,8.51881127 C15.6259439,8.51881127 15.0586105,8.95613521 14.5211368,10.3633465 C14.0401368,11.6241352 13.7253123,13.2937408 13.6201544,15.0780225 L17.9231895,15.0780225 C17.8180316,13.2937408 17.503207,11.6241352 17.022207,10.3633465 C16.4847333,8.95613521 15.9180491,8.51881127 15.7719965,8.51881127" id="Fill-6" fill="#00A4EC"></path>
            <path d="M20.5560965,15.0776986 L23.5472544,15.0776986 C23.1357105,12.6390507 21.5966404,10.5774732 19.4850439,9.44755775 C20.0770439,11.0057268 20.4470439,12.9688254 20.5560965,15.0776986" id="Fill-8" fill="#00A4EC"></path>
            <path d="M10.9872474,15.0776986 C11.0963,12.9688254 11.4663,11.0057268 12.0583,9.44755775 C9.94670351,10.5774732 8.40763333,12.6390507 7.99608947,15.0776986 L10.9872474,15.0776986 Z" id="Fill-10" fill="#00A4EC"></path>
            <g id="Group-14" transform="translate(0.000000, 0.545132)">
                <mask id="mask-4" fill="white">
                    <use xlink:href="#path-3"></use>
                </mask>
                <g id="Clip-13"></g>
                <path d="M15.7719965,26.3388225 C9.97403158,26.3388225 5.25750526,21.6312732 5.25750526,15.8443437 C5.25750526,10.058062 9.97403158,5.34986479 15.7719965,5.34986479 C21.5693123,5.34986479 26.2858386,10.058062 26.2858386,15.8443437 C26.2858386,21.6312732 21.5693123,26.3388225 15.7719965,26.3388225 L15.7719965,26.3388225 Z M9.20027719,32.8980338 L22.3430667,32.8980338 L22.3430667,30.2740901 L9.20027719,30.2740901 L9.20027719,32.8980338 Z M11.8292246,38.1452732 L19.7147684,38.1452732 L19.7147684,35.5219775 L11.8292246,35.5219775 L11.8292246,38.1452732 Z M27.0608912,0.102625352 L-0.000389473684,0.102625352 L-0.000389473684,44.7044845 L27.0608912,44.7044845 C29.5321018,44.7044845 31.5437333,42.723893 31.5437333,40.2891324 L31.5437333,4.51732958 C31.5437333,2.0832169 29.5321018,0.102625352 27.0608912,0.102625352 L27.0608912,0.102625352 Z" id="Fill-12" fill="#00A4EC" mask="url(#mask-4)"></path>
            </g>
            <path d="M20.5560965,17.7015127 C20.4470439,19.8103859 20.0770439,21.7734845 19.4850439,23.3316535 C21.5966404,22.201738 23.1357105,20.1401606 23.5472544,17.7015127 L20.5560965,17.7015127 Z" id="Fill-15" fill="#00A4EC"></path>
            <path d="M10.9872474,17.7015127 L7.99608947,17.7015127 C8.40763333,20.1401606 9.94670351,22.201738 12.0583,23.3316535 C11.4663,21.7734845 11.0963,19.8103859 10.9872474,17.7015127" id="Fill-17" fill="#00A4EC"></path>
        </g>
    </g>
</svg>