<?xml version="1.0" encoding="UTF-8"?>
<svg width="70px" height="60px" viewBox="0 0 70 60" version="1.1" xmlns="http://www.w3.org/2000/svg" xmlns:xlink="http://www.w3.org/1999/xlink">
    <!-- Generator: Sketch 56.3 (81716) - https://sketch.com -->
    <title>Telecom</title>
    <desc>Created with Sketch.</desc>
    <defs>
        <polygon id="path-1" points="0.382736842 0.468125 13.9953684 0.468125 13.9953684 15.9722222 0.382736842 15.9722222"></polygon>
        <polygon id="path-3" points="0.525614035 0.468333333 14.1382456 0.468333333 14.1382456 15.9722222 0.525614035 15.9722222"></polygon>
    </defs>
    <g id="Telecom" stroke="none" stroke-width="1" fill="none" fill-rule="evenodd">
        <g id="Group-25-Copy" transform="translate(15.000000, 6.000000)">
            <path d="M32.0185965,26.1919444 L33.9126316,28.06 C41.7414035,20.3120833 41.7414035,7.74958333 33.9126316,0.00166666667 L32.0185965,1.87041667 C38.8066667,8.58638889 38.8066667,19.4766667 32.0185965,26.1919444" id="Fill-1" fill="#00A4EC"></path>
            <g id="Group-5" transform="translate(4.210526, 33.899931)">
                <mask id="mask-2" fill="white">
                    <use xlink:href="#path-1"></use>
                </mask>
                <g id="Clip-4"></g>
                <polygon id="Fill-3" fill="#00A4EC" mask="url(#mask-2)" points="0.382736842 15.9722917 13.9953684 5.15284722 8.10063158 0.468125"></polygon>
            </g>
            <polygon id="Fill-6" fill="#00A4EC" points="14.5857544 33.4964583 19.8924211 37.713125 25.1976842 33.4964583"></polygon>
            <polygon id="Fill-8" fill="#00A4EC" points="19.8920702 19.1427083 13.5601404 31.8621528 26.224 31.8621528"></polygon>
            <g id="Group-12" transform="translate(21.052632, 33.899931)">
                <mask id="mask-4" fill="white">
                    <use xlink:href="#path-3"></use>
                </mask>
                <g id="Clip-11"></g>
                <polygon id="Fill-10" fill="#00A4EC" mask="url(#mask-4)" points="6.41964912 0.468333333 0.525614035 5.15305556 14.1382456 15.9725"></polygon>
            </g>
            <path d="M22.5654737,14.189375 C22.5654737,15.6504861 21.3682807,16.8352083 19.8917895,16.8352083 C18.4152982,16.8352083 17.2181053,15.6504861 17.2181053,14.189375 C17.2181053,12.7282639 18.4152982,11.5435417 19.8917895,11.5435417 C21.3682807,11.5435417 22.5654737,12.7282639 22.5654737,14.189375" id="Fill-13" fill="#00A4EC"></path>
            <path d="M26.3401404,20.5786806 C28.0994386,18.8439583 29.0882105,16.4884028 29.0882105,14.0307639 C29.0882105,11.5738194 28.0994386,9.21756944 26.3401404,7.48354167 L24.4580351,9.36131944 C25.7113684,10.5988194 26.4145263,12.2786806 26.4145263,14.0307639 C26.4145263,15.7821528 25.7113684,17.4620139 24.4580351,18.7002083 L26.3401404,20.5786806 Z" id="Fill-15" fill="#00A4EC"></path>
            <path d="M28.2370526,22.4477778 L30.1282807,24.3179167 C35.8679298,18.6359722 35.8679298,9.42555556 30.1282807,3.74361111 L28.2370526,5.61375 C32.9324912,10.2623611 32.9324912,17.7984722 28.2370526,22.4477778" id="Fill-17" fill="#00A4EC"></path>
            <path d="M7.76554386,26.1919444 C0.976070175,19.4759722 0.976070175,8.585 7.76554386,1.86902778 L5.87291228,0.000277777778 C-1.95726316,7.74888889 -1.95726316,20.3113889 5.87291228,28.06 L7.76554386,26.1919444 Z" id="Fill-19" fill="#00A4EC"></path>
            <path d="M13.444,20.5786806 L15.3261053,18.7002083 C14.0727719,17.4620139 13.3689123,15.7821528 13.3689123,14.0307639 C13.3689123,12.2786806 14.0727719,10.5988194 15.3261053,9.36131944 L13.444,7.48354167 C11.684,9.21756944 10.6952281,11.5738194 10.6952281,14.0307639 C10.6952281,16.4884028 11.684,18.8439583 13.444,20.5786806" id="Fill-21" fill="#00A4EC"></path>
            <path d="M9.65705263,24.3177778 L11.5468772,22.4476389 C6.85073684,17.7983333 6.85073684,10.2622222 11.5468772,5.61361111 L9.65564912,3.74 C3.91529825,9.42125 3.91529825,18.6316667 9.65564912,24.3136111 L9.65705263,24.3177778 Z" id="Fill-23" fill="#00A4EC"></path>
        </g>
    </g>
</svg>