<?xml version="1.0" encoding="UTF-8"?>
<svg width="70px" height="60px" viewBox="0 0 70 60" version="1.1" xmlns="http://www.w3.org/2000/svg" xmlns:xlink="http://www.w3.org/1999/xlink">
    <!-- Generator: Sketch 56.3 (81716) - https://sketch.com -->
    <title>Trucking</title>
    <desc>Created with Sketch.</desc>
    <defs>
        <polygon id="path-1" points="0 0.000136842105 52.9679962 0.000136842105 52.9679962 38.7898789 0 38.7898789"></polygon>
    </defs>
    <g id="Trucking" stroke="none" stroke-width="1" fill="none" fill-rule="evenodd">
        <g id="Group-3-Copy" transform="translate(9.000000, 12.000000)">
            <mask id="mask-2" fill="white">
                <use xlink:href="#path-1"></use>
            </mask>
            <g id="Clip-2"></g>
            <path d="M38.5220987,19.3947684 L38.5220987,13.3340316 L44.5409962,13.3340316 L49.2715859,19.3947684 L38.5220987,19.3947684 Z M40.9295218,35.1535053 C38.9318295,35.1535053 37.3187269,33.5291895 37.3187269,31.5169263 C37.3187269,29.5039789 38.9318295,27.8803474 40.9295218,27.8803474 C42.9278936,27.8803474 44.5409962,29.5039789 44.5409962,31.5169263 C44.5409962,33.5291895 42.9278936,35.1535053 40.9295218,35.1535053 L40.9295218,35.1535053 Z M12.0377269,35.1535053 C10.0400346,35.1535053 8.42693205,33.5291895 8.42693205,31.5169263 C8.42693205,29.5039789 10.0400346,27.8803474 12.0377269,27.8803474 C14.0367782,27.8803474 15.6498808,29.5039789 15.6498808,31.5169263 C15.6498808,33.5291895 14.0367782,35.1535053 12.0377269,35.1535053 L12.0377269,35.1535053 Z M45.7450474,9.69745263 L38.5220987,9.69745263 L38.5220987,0.000136842105 L4.81545769,0.000136842105 C2.15526538,0.000136842105 -6.79487179e-05,2.16976842 -6.79487179e-05,4.84845263 L-6.79487179e-05,31.5169263 L4.81545769,31.5169263 C4.81545769,35.5291368 8.0532141,38.7900842 12.0377269,38.7900842 C16.0229192,38.7900842 19.2606756,35.5291368 19.2606756,31.5169263 L33.7065731,31.5169263 C33.7065731,35.5291368 36.945009,38.7900842 40.9295218,38.7900842 C44.9140346,38.7900842 48.1524705,35.5291368 48.1524705,31.5169263 L52.9679962,31.5169263 L52.9679962,19.3947684 L45.7450474,9.69745263 Z" id="Fill-1" fill="#00A4EC" mask="url(#mask-2)"></path>
        </g>
    </g>
</svg>