<?xml version="1.0" encoding="UTF-8"?>
<svg width="43px" height="43px" viewBox="0 0 43 43" version="1.1" xmlns="http://www.w3.org/2000/svg" xmlns:xlink="http://www.w3.org/1999/xlink">
    <!-- Generator: Sketch 56.3 (81716) - https://sketch.com -->
    <title>Email Us W Border</title>
    <desc>Created with Sketch.</desc>
    <defs>
        <polygon id="path-1" points="0 0 14.8761039 0 14.8761039 7.63608 0 7.63608"></polygon>
        <polygon id="path-3" points="0 0.0693 14.8761039 0.0693 14.8761039 8.1999 0 8.1999"></polygon>
    </defs>
    <g id="Email-Us-W-Border" stroke="none" stroke-width="1" fill="none" fill-rule="evenodd">
        <circle id="Oval-Copy-6" fill="#001536" cx="21.5" cy="21.5" r="21.5"></circle>
        <g id="Group-7-Copy" transform="translate(14.000000, 17.000000)">
            <g id="Group-3">
                <mask id="mask-2" fill="white">
                    <use xlink:href="#path-1"></use>
                </mask>
                <g id="Clip-2"></g>
                <path d="M1.42780519,3.69888 C1.61598701,3.83528 2.18325974,4.24008 3.12962338,4.91348 C4.07598701,5.58668 4.80085714,6.10508 5.30462338,6.46868 C5.35994805,6.50848 5.47741558,6.59508 5.65722078,6.72868 C5.83722078,6.86228 5.98663636,6.97028 6.10546753,7.05268 C6.22468831,7.13488 6.36845455,7.22728 6.53735065,7.32948 C6.70605195,7.43168 6.86520779,7.50848 7.01462338,7.55928 C7.16403896,7.61068 7.30254545,7.63608 7.42975325,7.63608 L7.43812987,7.63608 L7.44650649,7.63608 C7.57371429,7.63608 7.71202597,7.61068 7.86163636,7.55928 C8.01085714,7.50848 8.17020779,7.43168 8.33890909,7.32948 C8.50761039,7.22728 8.65157143,7.13488 8.7704026,7.05268 C8.88962338,6.97028 9.03884416,6.86228 9.21884416,6.72868 C9.39864935,6.59488 9.51631169,6.50848 9.57163636,6.46868 C10.0806623,6.10508 11.3757273,5.18168 13.4566364,3.69868 C13.8606623,3.40908 14.1980649,3.05948 14.4692338,2.65048 C14.7405974,2.24148 14.8761818,1.81248 14.8761818,1.36368 C14.8761818,0.98868 14.7446883,0.66748 14.4817013,0.40048 C14.2189091,0.13348 13.9076104,-0.00012 13.5478052,-0.00012 L1.32825974,-0.00012 C0.902025974,-0.00012 0.574168831,0.14768 0.344493506,0.44308 C0.114818182,0.73868 -0.000116883117,1.10788 -0.000116883117,1.55108 C-0.000116883117,1.90908 0.152220779,2.29688 0.456701299,2.71448 C0.760987013,3.13208 1.08475325,3.46028 1.42780519,3.69888" id="Fill-1" fill="#00A4EC" mask="url(#mask-2)"></path>
            </g>
            <g id="Group-6" transform="translate(0.000000, 3.800000)">
                <mask id="mask-4" fill="white">
                    <use xlink:href="#path-3"></use>
                </mask>
                <g id="Clip-5"></g>
                <path d="M14.0459026,0.8107 C12.2309026,2.0721 10.8526558,3.0523 9.91194156,3.7511 C9.59655195,3.9897 9.34057792,4.1759 9.14401948,4.3093 C8.94746104,4.4429 8.68622727,4.5793 8.35953896,4.7183 C8.03304545,4.8577 7.72875974,4.9273 7.44668182,4.9273 L7.43811039,4.9273 L7.42973377,4.9273 C7.14746104,4.9273 6.84298052,4.8577 6.51668182,4.7183 C6.19018831,4.5793 5.92856494,4.4429 5.7322013,4.3093 C5.53564286,4.1759 5.27966883,3.9897 4.96427922,3.7511 C4.2172013,3.1887 2.84187662,2.2085 0.8385,0.8107 C0.52311039,0.5949 0.243564935,0.3477 -0.000136363636,0.0693 L-0.000136363636,6.8361 C-0.000136363636,7.2113 0.129993506,7.5323 0.390058442,7.7993 C0.650123377,8.0665 0.962980519,8.1999 1.32824026,8.1999 L13.5479805,8.1999 C13.9132403,8.1999 14.2259026,8.0665 14.4859675,7.7993 C14.7462273,7.5321 14.8761623,7.2115 14.8761623,6.8361 L14.8761623,0.0693 C14.6381104,0.3419 14.361487,0.5893 14.0459026,0.8107" id="Fill-4" fill="#00A4EC" mask="url(#mask-4)"></path>
            </g>
        </g>
    </g>
</svg>