<?xml version="1.0" encoding="UTF-8"?>
<svg width="43px" height="43px" viewBox="0 0 43 43" version="1.1" xmlns="http://www.w3.org/2000/svg" xmlns:xlink="http://www.w3.org/1999/xlink">
    <!-- Generator: Sketch 56.3 (81716) - https://sketch.com -->
    <title>Call Us W Border</title>
    <desc>Created with Sketch.</desc>
    <defs>
        <polygon id="path-1" points="0 0 13.3594195 0 13.3594195 13.4765625 0 13.4765625"></polygon>
    </defs>
    <g id="Call-Us-W-Border" stroke="none" stroke-width="1" fill="none" fill-rule="evenodd">
        <circle id="Oval-Copy-8" fill="#001536" cx="21.5" cy="21.5" r="21.5"></circle>
        <g id="Group-31-Copy-3" transform="translate(14.000000, 15.000000)">
            <g id="Group-3" transform="translate(-0.000000, 1.363659)">
                <mask id="mask-2" fill="white">
                    <use xlink:href="#path-1"></use>
                </mask>
                <g id="Clip-2"></g>
                <path d="M12.2873297,8.84579102 C11.4695133,8.84579102 10.6663922,8.71686523 9.90535312,8.46305664 C9.53240391,8.33480469 9.07395469,8.4525 8.8464,8.68833984 L7.34436094,9.83227539 C5.60229844,8.89408203 4.52909531,7.81191406 3.61197422,6.06782227 L4.71256406,4.59213867 C4.99867734,4.30396484 5.10109922,3.88327148 4.97819297,3.4884082 C4.72570078,2.71665039 4.59745078,1.90670898 4.59745078,1.08149414 C4.59745078,0.48515625 4.11651328,0 3.52536094,0 L1.07191172,0 C0.480982031,0 -0.000178125,0.48515625 -0.000178125,1.08149414 C-0.000178125,7.91613281 5.5119,13.4765625 12.2873297,13.4765625 C12.878482,13.4765625 13.3594195,12.9914063 13.3594195,12.3950684 L13.3594195,9.92706055 C13.3591969,9.33094727 12.878482,8.84579102 12.2873297,8.84579102" id="Fill-1" fill="#00A4EC" mask="url(#mask-2)"></path>
            </g>
            <path d="M13.6394766,6.80004883 C13.6394766,3.35049805 10.8573867,0.543779297 7.43783203,0.543779297 C7.36235156,0.543779297 7.29021094,0.513007813 7.23966797,0.459101562 C7.19179688,0.408339844 7.16775,0.341855469 7.17153516,0.272001953 C7.17153516,0.123535156 7.29377344,4.4408921e-16 7.44428906,4.4408921e-16 C11.1613125,4.4408921e-16 14.185207,3.05064453 14.185207,6.80004883 C14.185207,6.94918945 14.0602969,7.07519531 13.9124531,7.07519531 C13.7619375,7.07519531 13.6394766,6.95188477 13.6394766,6.80004883 Z" id="Fill-4" fill="#00A4EC"></path>
            <path d="M11.4746566,6.80004883 C11.4746566,4.55822266 9.66668789,2.73416992 7.44435586,2.73416992 C7.29384023,2.73416992 7.1713793,2.61063477 7.1713793,2.45902344 C7.1713793,2.3071875 7.29384023,2.18387695 7.44435586,2.18387695 C9.96749648,2.18387695 12.0203871,4.25455078 12.0203871,6.80004883 C12.0203871,6.94918945 11.895477,7.07519531 11.7476332,7.07519531 C11.5971176,7.07519531 11.4746566,6.95166016 11.4746566,6.80004883 Z" id="Fill-6" fill="#00A4EC"></path>
            <path d="M9.57608906,7.07508301 C9.42579609,7.07508301 9.30333516,6.95177246 9.30333516,6.79993652 C9.30333516,5.76224121 8.46659297,4.91793457 7.43769844,4.91793457 C7.28740547,4.91793457 7.16494453,4.79439941 7.16494453,4.64278809 C7.16494453,4.49364746 7.28963203,4.3676416 7.43769844,4.3676416 C8.76717891,4.3676416 9.84906563,5.45879395 9.84906563,6.79993652 C9.84906563,6.95177246 9.72660469,7.07508301 9.57608906,7.07508301" id="Fill-8" fill="#00A4EC"></path>
        </g>
    </g>
</svg>