<?xml version="1.0" encoding="UTF-8"?>
<svg width="39px" height="39px" viewBox="0 0 39 39" version="1.1" xmlns="http://www.w3.org/2000/svg" xmlns:xlink="http://www.w3.org/1999/xlink">
    <!-- Generator: Sketch 56.3 (81716) - https://sketch.com -->
    <title>Facebook Icon</title>
    <desc>Created with Sketch.</desc>
    <defs>
        <polygon id="path-1" points="0 0 13.04884 0 13.04884 27.99986 0 27.99986"></polygon>
    </defs>
    <g id="Facebook-Icon" stroke="none" stroke-width="1" fill="none" fill-rule="evenodd">
        <g id="Group-3" transform="translate(13.000000, 6.000000)">
            <mask id="mask-2" fill="white">
                <use xlink:href="#path-1"></use>
            </mask>
            <g id="Clip-2"></g>
            <path d="M8.68270667,9.17452667 L8.68270667,6.76186 C8.68270667,6.40019333 8.69950667,6.11926 8.73310667,5.92092667 C8.76670667,5.72306 8.84370667,5.52752667 8.96270667,5.33479333 C9.08170667,5.14206 9.27444,5.00906 9.54044,4.93579333 C9.80690667,4.86206 10.16064,4.82519333 10.6025733,4.82519333 L13.01524,4.82519333 L13.01524,-0.00014 L9.15824,-0.00014 C6.92664,-0.00014 5.32410667,0.529526667 4.34970667,1.58839333 C3.37577333,2.64772667 2.88857333,4.20732667 2.88857333,6.26906 L2.88857333,9.17452667 L-9.33333333e-05,9.17452667 L-9.33333333e-05,13.99986 L2.88857333,13.99986 L2.88857333,27.99986 L8.68270667,27.99986 L8.68270667,14.0003267 L12.53924,14.0003267 L13.04884,9.17452667 L8.68270667,9.17452667 Z" id="Fill-1" fill="#FEFEFE" mask="url(#mask-2)"></path>
        </g>
    </g>
</svg>