<?xml version="1.0" encoding="UTF-8"?>
<svg width="39px" height="39px" viewBox="0 0 39 39" version="1.1" xmlns="http://www.w3.org/2000/svg" xmlns:xlink="http://www.w3.org/1999/xlink">
    <!-- Generator: Sketch 56.3 (81716) - https://sketch.com -->
    <title>Instagram Icon</title>
    <desc>Created with Sketch.</desc>
    <defs>
        <polygon id="path-1" points="0 0 27.9999067 0 27.9999067 27.9998133 0 27.9998133"></polygon>
    </defs>
    <g id="Instagram-Icon" stroke="none" stroke-width="1" fill="none" fill-rule="evenodd">
        <g id="Group-8" transform="translate(6.000000, 6.000000)">
            <g id="Group-3">
                <mask id="mask-2" fill="white">
                    <use xlink:href="#path-1"></use>
                </mask>
                <g id="Clip-2"></g>
                <path d="M25.3749067,19.2498133 C25.3749067,22.6275467 22.62764,25.3748133 19.2499067,25.3748133 L8.74990667,25.3748133 C5.37264,25.3748133 2.62490667,22.6275467 2.62490667,19.2498133 L2.62490667,8.74981333 C2.62490667,5.37254667 5.37264,2.62481333 8.74990667,2.62481333 L19.2499067,2.62481333 C22.62764,2.62481333 25.3749067,5.37254667 25.3749067,8.74981333 L25.3749067,19.2498133 Z M19.2499067,-0.000186666667 L8.74990667,-0.000186666667 C3.91804,-0.000186666667 -9.33333333e-05,3.91794667 -9.33333333e-05,8.74981333 L-9.33333333e-05,19.2498133 C-9.33333333e-05,24.08168 3.91804,27.9998133 8.74990667,27.9998133 L19.2499067,27.9998133 C24.0817733,27.9998133 27.9999067,24.08168 27.9999067,19.2498133 L27.9999067,8.74981333 C27.9999067,3.91794667 24.0817733,-0.000186666667 19.2499067,-0.000186666667 L19.2499067,-0.000186666667 Z" id="Fill-1" fill="#FEFEFE" mask="url(#mask-2)"></path>
            </g>
            <path d="M13.9999067,18.3748133 C11.58864,18.3748133 9.62490667,16.4115467 9.62490667,13.9998133 C9.62490667,11.58668 11.58864,9.62481333 13.9999067,9.62481333 C16.4111733,9.62481333 18.3749067,11.58668 18.3749067,13.9998133 C18.3749067,16.4115467 16.4111733,18.3748133 13.9999067,18.3748133 M13.9999067,6.99981333 C10.13404,6.99981333 6.99990667,10.1344133 6.99990667,13.9998133 C6.99990667,17.86568 10.13404,20.9998133 13.9999067,20.9998133 C17.8657733,20.9998133 20.9999067,17.86568 20.9999067,13.9998133 C20.9999067,10.1344133 17.8657733,6.99981333 13.9999067,6.99981333" id="Fill-4" fill="#FEFEFE"></path>
            <path d="M21.5249067,5.54236667 C22.0401067,5.54236667 22.4577733,5.96003333 22.4577733,6.47476667 C22.4577733,6.99043333 22.0401067,7.40763333 21.5249067,7.40763333 C21.0097067,7.40763333 20.59204,6.99043333 20.59204,6.47476667 C20.59204,5.96003333 21.0097067,5.54236667 21.5249067,5.54236667" id="Fill-6" fill="#FEFEFE"></path>
        </g>
    </g>
</svg>