<?xml version="1.0" encoding="UTF-8"?>
<svg width="20px" height="20px" viewBox="0 0 20 20" version="1.1" xmlns="http://www.w3.org/2000/svg" xmlns:xlink="http://www.w3.org/1999/xlink">
    <!-- Generator: Sketch 56.3 (81716) - https://sketch.com -->
    <title>Phone Icon</title>
    <desc>Created with Sketch.</desc>
    <defs>
        <polygon id="path-1" points="3e-05 0 9 0 9 8.99988 3e-05 8.99988"></polygon>
    </defs>
    <g id="Phone-Icon" stroke="none" stroke-width="1" fill="none" fill-rule="evenodd">
        <g id="Group-10" transform="translate(1.000000, 1.000000)">
            <path d="M9.60003,4.79988 C9.26853,4.79988 9.00003,5.06868 9.00003,5.39988 C9.00003,5.73108 9.26853,5.99988 9.60003,5.99988 C10.92363,5.99988 12.00003,7.07628 12.00003,8.39988 C12.00003,8.73108 12.26883,8.99988 12.60003,8.99988 C12.93123,8.99988 13.20003,8.73108 13.20003,8.39988 C13.20003,6.41538 11.58483,4.79988 9.60003,4.79988" id="Fill-1" fill="#FEFEFE"></path>
            <path d="M9.60003,2.39988 C9.26853,2.39988 9.00003,2.66868 9.00003,2.99988 C9.00003,3.33108 9.26853,3.59988 9.60003,3.59988 C12.24723,3.59988 14.40003,5.75298 14.40003,8.39988 C14.40003,8.73108 14.66883,8.99988 15.00003,8.99988 C15.33123,8.99988 15.60003,8.73108 15.60003,8.39988 C15.60003,5.09178 12.90843,2.39988 9.60003,2.39988" id="Fill-3" fill="#FEFEFE"></path>
            <g id="Group-7" transform="translate(9.000000, 0.000000)">
                <mask id="mask-2" fill="white">
                    <use xlink:href="#path-1"></use>
                </mask>
                <g id="Clip-6"></g>
                <path d="M0.60003,-0.00012 C0.26853,-0.00012 3e-05,0.26868 3e-05,0.59988 C3e-05,0.93108 0.26853,1.19988 0.60003,1.19988 C4.57083,1.19988 7.80003,4.42938 7.80003,8.39988 C7.80003,8.73108 8.06883,8.99988 8.40003,8.99988 C8.73123,8.99988 9.00003,8.73108 9.00003,8.39988 C9.00003,3.76818 5.23083,-0.00012 0.60003,-0.00012" id="Fill-5" fill="#FEFEFE" mask="url(#mask-2)"></path>
            </g>
            <path d="M16.20003,13.19988 C14.45733,13.19988 12.79803,12.82068 11.26803,12.07308 C11.12403,12.00108 10.95843,11.99298 10.80843,12.04548 C10.65693,12.09828 10.53363,12.20868 10.46403,12.35178 L9.52083,14.30418 C7.08003,12.94218 5.05923,10.92228 3.69843,8.48148 L5.64963,7.53588 C5.79363,7.46658 5.90283,7.34298 5.95563,7.19178 C6.00693,7.04178 5.99763,6.87588 5.92683,6.73188 C5.17923,5.20218 4.80003,3.54258 4.80003,1.79988 C4.80003,1.46868 4.53123,1.19988 4.20003,1.19988 L0.60003,1.19988 C0.26853,1.19988 3e-05,1.46868 3e-05,1.79988 C3e-05,10.73268 7.26723,17.99988 16.20003,17.99988 C16.53123,17.99988 16.80003,17.73108 16.80003,17.39988 L16.80003,13.79988 C16.80003,13.46868 16.53123,13.19988 16.20003,13.19988" id="Fill-8" fill="#FEFEFE"></path>
        </g>
    </g>
</svg>