<?xml version="1.0" encoding="UTF-8"?>
<svg width="85px" height="85px" viewBox="0 0 85 85" version="1.1" xmlns="http://www.w3.org/2000/svg" xmlns:xlink="http://www.w3.org/1999/xlink">
    <!-- Generator: Sketch 56.3 (81716) - https://sketch.com -->
    <title>Services Icon 2</title>
    <desc>Created with Sketch.</desc>
    <defs>
        <polygon id="path-1" points="0.000431707317 0.472048193 52.7809683 0.472048193 52.7809683 9.17183133 0.000431707317 9.17183133"></polygon>
        <polygon id="path-3" points="0.360010175 0.606650602 30.8102317 0.606650602 30.8102317 31.8070102 0.360010175 31.8070102"></polygon>
    </defs>
    <g id="Services-Icon-2" stroke="none" stroke-width="1" fill="none" fill-rule="evenodd">
        <g id="Group-45" transform="translate(13.000000, 12.000000)">
            <path d="M28.7250854,50.7498072 L2.0297439,50.7498072 C0.910182927,50.7461928 0.00359756098,49.7746265 0,48.5746265 L0,7.24836145 L52.7812561,7.24836145 L52.7812561,34.4370361 L28.7250854,50.7498072 Z" id="Fill-1" fill="#FFFFFF"></path>
            <path d="M46.691089,28.6394458 L46.691089,26.2481205 C46.691089,24.5261928 45.3276134,23.1302892 43.6461134,23.1302892 C41.9646134,23.1302892 40.6011378,24.5261928 40.6011378,26.2481205 L40.6011378,28.6394458 L46.691089,28.6394458 Z" id="Fill-3" fill="#285680"></path>
            <g id="Group-7" transform="translate(0.000000, 0.251133)">
                <mask id="mask-2" fill="white">
                    <use xlink:href="#path-1"></use>
                </mask>
                <g id="Clip-6"></g>
                <path d="M52.7809683,2.64701205 L52.7809683,9.17183133 L0.000431707317,9.17183133 L0.000431707317,2.64701205 C0.0033097561,1.44701205 0.909895122,0.475445783 2.03017561,0.471831325 L50.7512244,0.471831325 C51.8707854,0.475445783 52.7780902,1.44701205 52.7809683,2.64701205" id="Fill-5" fill="#001536" mask="url(#mask-2)"></path>
            </g>
            <path d="M4.05999146,3.98559036 C4.62049146,3.98559036 5.07522317,4.47209639 5.07522317,5.07281928 C5.07522317,5.67354217 4.62049146,6.16077108 4.05999146,6.16077108 C3.49949146,6.16077108 3.04547927,5.67354217 3.04547927,5.07281928 C3.04547927,4.47209639 3.49949146,3.98559036 4.05999146,3.98559036" id="Fill-8" fill="#E64C3C"></path>
            <path d="M8.11991098,3.98559036 C8.68041098,3.98559036 9.13514268,4.47209639 9.13514268,5.07281928 C9.13514268,5.67354217 8.68041098,6.16077108 8.11991098,6.16077108 C7.56013049,6.16077108 7.10539878,5.67354217 7.10539878,5.07281928 C7.10539878,4.47209639 7.56013049,3.98559036 8.11991098,3.98559036" id="Fill-10" fill="#F0C419"></path>
            <path d="M12.180478,3.98559036 C12.740978,3.98559036 13.1949902,4.47209639 13.1949902,5.07281928 C13.1949902,5.67354217 12.740978,6.16077108 12.180478,6.16077108 C11.619978,6.16077108 11.1652463,5.67354217 11.1652463,5.07281928 C11.1652463,4.47209639 11.619978,3.98559036 12.180478,3.98559036" id="Fill-12" fill="#24AE5F"></path>
            <path d="M48.7210488,6.16062651 L41.6158659,6.16062651 C41.0553659,6.16062651 40.6013537,5.67339759 40.6013537,5.07339759 C40.6013537,4.4726747 41.0553659,3.98544578 41.6158659,3.98544578 L48.7210488,3.98544578 C49.2815488,3.98544578 49.7362805,4.4726747 49.7362805,5.07339759 C49.7362805,5.67339759 49.2815488,6.16062651 48.7210488,6.16062651" id="Fill-14" fill="#ECF0F1"></path>
            <path d="M7.10525488,14.8607711 L25.375828,14.8607711 C26.496828,14.8607711 27.405572,15.8352289 27.405572,17.0359518 L27.405572,32.261494 C27.405572,33.4629398 26.496828,34.4366747 25.375828,34.4366747 L7.10525488,34.4366747 C5.98353537,34.4366747 5.07551098,33.4629398 5.07551098,32.261494 L5.07551098,17.0359518 C5.07551098,15.8352289 5.98353537,14.8607711 7.10525488,14.8607711" id="Fill-16" fill="#E64C3C"></path>
            <path d="M11.1651744,39.8746265 L5.07522317,39.8746265 C4.51472317,39.8746265 4.05999146,39.3873976 4.05999146,38.7866747 C4.05999146,38.1859518 4.51472317,37.6994458 5.07522317,37.6994458 L11.1651744,37.6994458 C11.7256744,37.6994458 12.1804061,38.1859518 12.1804061,38.7866747 C12.1804061,39.3873976 11.7256744,39.8746265 11.1651744,39.8746265" id="Fill-18" fill="#001536"></path>
            <path d="M19.285661,39.8746265 L15.2247341,39.8746265 C14.6649537,39.8746265 14.210222,39.3873976 14.210222,38.7866747 C14.210222,38.1859518 14.6649537,37.6994458 15.2247341,37.6994458 L19.285661,37.6994458 C19.8454415,37.6994458 20.3001732,38.1859518 20.3001732,38.7866747 C20.3001732,39.3873976 19.8454415,39.8746265 19.285661,39.8746265" id="Fill-20" fill="#001536"></path>
            <path d="M25.3755402,39.8746265 L23.3457963,39.8746265 C22.7845768,39.8746265 22.3305646,39.3873976 22.3305646,38.7866747 C22.3305646,38.1859518 22.7845768,37.6994458 23.3457963,37.6994458 L25.3755402,37.6994458 C25.9360402,37.6994458 26.390772,38.1859518 26.390772,38.7866747 C26.390772,39.3873976 25.9360402,39.8746265 25.3755402,39.8746265" id="Fill-22" fill="#001536"></path>
            <path d="M17.2557012,44.2246988 L5.07507927,44.2246988 C4.51457927,44.2246988 4.05984756,43.7374699 4.05984756,43.136747 C4.05984756,42.536747 4.51457927,42.0495181 5.07507927,42.0495181 L17.2557012,42.0495181 C17.8154817,42.0495181 18.2702134,42.536747 18.2702134,43.136747 C18.2702134,43.7374699 17.8154817,44.2246988 17.2557012,44.2246988" id="Fill-24" fill="#001536"></path>
            <g id="Group-28" transform="translate(28.060976, 27.721012)">
                <mask id="mask-4" fill="white">
                    <use xlink:href="#path-3"></use>
                </mask>
                <g id="Clip-27"></g>
                <path d="M30.8105274,16.1986988 C30.8184341,24.2090602 24.8975683,30.9225542 17.1153244,31.7271325 C9.33236098,32.5324337 2.22070244,27.1671325 0.664397561,19.3165301 C0.459336585,18.2914699 0.357885366,17.2454458 0.360010175,16.1986988 C0.360010175,7.58761446 7.17598293,0.606650602 15.584922,0.606650602 C23.9931415,0.606650602 30.8105274,7.58761446 30.8105274,16.1986988" id="Fill-26" fill="#00A4EC" mask="url(#mask-4)"></path>
            </g>
            <path d="M43.6458256,32.4855181 C49.8120451,32.4855181 54.8119354,37.6043133 54.8119354,43.919494 C54.8119354,50.2346747 49.8120451,55.3541928 43.6458256,55.3541928 C37.4796061,55.3541928 32.4804354,50.2346747 32.4804354,43.919494 C32.4804354,37.6043133 37.4796061,32.4855181 43.6458256,32.4855181" id="Fill-29" fill="#ECF0F1"></path>
            <path d="M53.2988012,38.1923855 C51.6036305,37.1738313 49.6717402,36.6396145 47.7067524,36.6432289 C41.5412524,36.6468434 36.5449598,41.7641928 36.5406427,48.0779277 C36.5363256,50.0904578 37.059411,52.0682892 38.0537768,53.8053976 C33.9950085,51.4003373 31.836472,46.6545542 32.6523988,41.9261205 C33.4676061,37.1976867 37.0824354,33.495759 41.6995451,32.6608193 C46.3166549,31.8251566 50.9510329,34.035759 53.2988012,38.1923855" id="Fill-31" fill="#FFFFFF"></path>
            <path d="M43.6458256,33.5246747 C38.0401061,33.5246747 33.4963866,38.1786506 33.4963866,43.9198554 C33.4963866,49.6603373 38.0401061,54.3143133 43.6458256,54.3143133 C49.2515451,54.3143133 53.7959841,49.6603373 53.7959841,43.9198554 C53.790228,38.1808193 49.2493866,33.5311807 43.6458256,33.5246747 M43.6458256,56.3933494 C38.7193256,56.3933494 34.2777768,53.3543133 32.3926549,48.6931084 C30.5075329,44.0319036 31.5493866,38.6666024 35.0332646,35.0998554 C38.5164232,31.5316627 43.7551915,30.4646747 48.3075451,32.3955181 C52.8591793,34.3256386 55.8264476,38.8740723 55.8264476,43.9198554 C55.8192524,50.8053976 50.3703866,56.3861205 43.6458256,56.3933494" id="Fill-33" fill="#BDC3C7"></path>
            <path d="M17.9871573,24.6487229 L23.9353646,20.0959518 C24.3915354,19.7475181 24.4973037,19.068 24.1720841,18.5793253 C23.8461451,18.0906506 23.2122549,17.9771566 22.7560841,18.3255904 L16.2401817,23.3120964 L9.72499878,18.3255904 C9.42927927,18.1000482 9.04434024,18.0602892 8.71408415,18.2207711 C8.38454756,18.3819759 8.16005976,18.7195663 8.12480366,19.1063133 C8.08954756,19.4930602 8.25071829,19.8711325 8.54571829,20.0959518 L14.4939256,24.6487229 L8.54571829,29.201494 C8.08882805,29.5499277 7.98377927,30.2294458 8.30899878,30.7181205 C8.6349378,31.2075181 9.26882805,31.3202892 9.72499878,30.9718554 L16.2401817,25.9860723 L22.7560841,30.9718554 C23.2122549,31.3202892 23.8461451,31.2075181 24.1720841,30.7181205 C24.4973037,30.2294458 24.3915354,29.5499277 23.9353646,29.201494 L17.9871573,24.6487229 Z" id="Fill-35" fill="#FFFFFF"></path>
            <path d="M38.5706024,15.9486506 L32.4806512,15.9486506 C31.9201512,15.9486506 31.4654195,15.4614217 31.4654195,14.8606988 C31.4654195,14.2599759 31.9201512,13.7734699 32.4806512,13.7734699 L38.5706024,13.7734699 C39.1311024,13.7734699 39.5858341,14.2599759 39.5858341,14.8606988 C39.5858341,15.4614217 39.1311024,15.9486506 38.5706024,15.9486506" id="Fill-37" fill="#001536"></path>
            <path d="M47.7063927,15.9486506 L43.6454659,15.9486506 C43.0849659,15.9486506 42.6309537,15.4614217 42.6309537,14.8606988 C42.6309537,14.2599759 43.0849659,13.7734699 43.6454659,13.7734699 L47.7063927,13.7734699 C48.2661732,13.7734699 48.7209049,14.2599759 48.7209049,14.8606988 C48.7209049,15.4614217 48.2661732,15.9486506 47.7063927,15.9486506" id="Fill-39" fill="#001536"></path>
            <path d="M47.7063927,20.2987229 L32.4807951,20.2987229 C31.9202951,20.2987229 31.4655634,19.811494 31.4655634,19.2107711 C31.4655634,18.6107711 31.9202951,18.1235422 32.4807951,18.1235422 L47.7063927,18.1235422 C48.2661732,18.1235422 48.7209049,18.6107711 48.7209049,19.2107711 C48.7209049,19.811494 48.2661732,20.2987229 47.7063927,20.2987229" id="Fill-41" fill="#001536"></path>
            <path d="M48.7210488,48.0777831 C48.5368537,48.0777831 48.3569756,48.0264578 48.1994024,47.9288675 L43.1246829,44.8103133 C42.8188902,44.6230843 42.6310976,44.2847711 42.6310976,43.9197108 L42.6310976,36.6438072 C42.6310976,36.0691084 43.0851098,35.6035663 43.6456098,35.6035663 C44.2068293,35.6035663 44.6608415,36.0691084 44.6608415,36.6438072 L44.6608415,43.3312771 L49.2441341,46.1469398 C49.6348293,46.3876627 49.8204634,46.865494 49.6988659,47.3158554 C49.5765488,47.765494 49.1772195,48.0770602 48.7210488,48.0777831" id="Fill-43" fill="#00A4EC"></path>
        </g>
    </g>
</svg>