<?xml version="1.0" encoding="UTF-8"?>
<svg width="85px" height="85px" viewBox="0 0 85 85" version="1.1" xmlns="http://www.w3.org/2000/svg" xmlns:xlink="http://www.w3.org/1999/xlink">
    <!-- Generator: Sketch 56.3 (81716) - https://sketch.com -->
    <title>Services Icon 3</title>
    <desc>Created with Sketch.</desc>
    <defs>
        <polygon id="path-1" points="0 0.300246914 62.70075 0.300246914 62.70075 63.2097975 0 63.2097975"></polygon>
        <polygon id="path-3" points="0.639135 0.300246914 31.98825 0.300246914 31.98825 63.2097975 0.639135 63.2097975"></polygon>
    </defs>
    <g id="Services-Icon-3" stroke="none" stroke-width="1" fill="none" fill-rule="evenodd">
        <g id="Group-19" transform="translate(11.000000, 10.000000)">
            <g id="Group-3" transform="translate(0.000000, 0.490114)">
                <mask id="mask-2" fill="white">
                    <use xlink:href="#path-1"></use>
                </mask>
                <g id="Clip-2"></g>
                <path d="M61.01361,24.6580938 L53.4795975,23.8853531 C53.2071225,23.1149827 52.8936975,22.3580444 52.54326,21.6200691 L57.3273225,15.7281185 C57.93606,14.9790815 57.8801475,13.8895012 57.19896,13.2060444 L49.8381975,5.81997037 C49.15701,5.13651358 48.0710475,5.08120494 47.3244975,5.69197037 L42.3915975,9.72397037 C41.8293225,10.1838222 41.04891,10.2904889 40.354335,10.0005136 L40.310235,9.98234074 C39.61881,9.69552593 39.1439475,9.06895802 39.07071,8.34441481 L38.423385,1.99261235 C38.325735,1.0310321 37.519335,0.300167901 36.555435,0.300167901 L26.1454725,0.300167901 C25.18236,0.300167901 24.3751725,1.0310321 24.2775225,1.99261235 L23.6301975,8.34441481 C23.55696,9.06895802 23.0820975,9.69552593 22.3875225,9.98392099 L22.3449975,10.0013037 C21.6519975,10.2896988 20.8723725,10.1838222 20.3100975,9.72397037 L15.3771975,5.69197037 C14.6306475,5.08120494 13.544685,5.13651358 12.86271,5.81997037 L5.5019475,13.2060444 C4.82076,13.8895012 4.7648475,14.9790815 5.373585,15.7281185 L9.392985,20.678242 C9.85131,21.2423901 9.956835,22.0246123 9.670185,22.7167605 L9.64971,22.764958 C9.364635,23.4586864 8.7385725,23.9351309 8.0172225,24.0094025 L1.68651,24.6580938 C0.72891,24.7560691 -0.000315,25.5651556 -0.000315,26.5322667 L-0.000315,36.9776988 C-0.000315,37.9440198 0.72891,38.7538963 1.6872975,38.8518716 L8.0172225,39.500563 C8.7385725,39.5748346 9.364635,40.0504889 9.64971,40.7450074 L9.6693975,40.7900444 C9.956835,41.4853531 9.8505225,42.2675753 9.3921975,42.8317235 L5.373585,47.782637 C4.7648475,48.5316741 4.82076,49.6212543 5.5019475,50.303921 L12.86271,57.6899951 C13.544685,58.3734519 14.6306475,58.4279704 15.3771975,57.8187852 L20.30931,53.7859951 C20.8723725,53.3261432 21.6519975,53.2194765 22.34421,53.5086617 L22.39146,53.5276247 C23.0820975,53.8136494 23.55696,54.4410074 23.6301975,55.1655506 L24.2775225,61.516563 C24.3751725,62.4781432 25.1815725,63.2097975 26.1454725,63.2097975 L36.555435,63.2097975 C37.5185475,63.2097975 38.3249475,62.4781432 38.423385,61.516563 L39.0699225,55.1655506 C39.1439475,54.4410074 39.61881,53.8136494 40.3110225,53.5268346 L40.35591,53.5094519 C41.0481225,53.2194765 41.828535,53.3261432 42.39081,53.7859951 L47.3244975,57.8187852 C48.07026,58.4279704 49.15701,58.3734519 49.8381975,57.6899951 L57.19896,50.303921 C57.8801475,49.6212543 57.9352725,48.5316741 57.326535,47.782637 L53.30871,42.8317235 C52.850385,42.2675753 52.7440725,41.4853531 53.0322975,40.7876741 L53.0511975,40.7442173 C53.3362725,40.0504889 53.9615475,39.5748346 54.683685,39.500563 L61.01361,38.8518716 C61.9719975,38.7538963 62.7012225,37.9440198 62.7012225,36.9776988 L62.7012225,26.5322667 C62.7012225,25.5651556 61.9719975,24.7560691 61.01361,24.6580938" id="Fill-1" fill="#001536" mask="url(#mask-2)"></path>
            </g>
            <g id="Group-6" transform="translate(30.712500, 0.490114)">
                <mask id="mask-4" fill="white">
                    <use xlink:href="#path-3"></use>
                </mask>
                <g id="Clip-5"></g>
                <path d="M30.30111,24.6580938 L22.7670975,23.8853531 C22.4946225,23.1149827 22.1811975,22.3580444 21.83076,21.6200691 L26.6148225,15.7281185 C27.22356,14.9790815 27.1676475,13.8895012 26.48646,13.2060444 L19.1256975,5.81997037 C18.44451,5.13651358 17.3585475,5.08120494 16.6119975,5.69197037 L11.6790975,9.72397037 C11.1168225,10.1838222 10.33641,10.2904889 9.641835,10.0005136 L9.597735,9.98234074 C8.90631,9.69552593 8.4314475,9.06895802 8.35821,8.34441481 L7.710885,1.99261235 C7.613235,1.0310321 6.806835,0.300167901 5.842935,0.300167901 L0.639135,0.300167901 L0.639135,63.2097975 L5.842935,63.2097975 C6.806835,63.2097975 7.613235,62.4789333 7.710885,61.516563 L8.35821,55.1655506 C8.4314475,54.4417975 8.90631,53.8136494 9.59931,53.5276247 L9.64341,53.5094519 C10.3356225,53.2194765 11.116035,53.3261432 11.67831,53.7859951 L16.6119975,57.8187852 C17.3585475,58.4279704 18.44451,58.3734519 19.1256975,57.6899951 L26.48646,50.303921 C27.1676475,49.6212543 27.22356,48.5316741 26.6148225,47.782637 L22.59621,42.8317235 C22.137885,42.2683654 22.0315725,41.4861432 22.320585,40.7884642 L22.339485,40.7442173 C22.6237725,40.0504889 23.249835,39.5748346 23.971185,39.500563 L30.30111,38.8526617 C31.2594975,38.7538963 31.9887225,37.9440198 31.9887225,36.9784889 L31.9887225,26.5322667 C31.9887225,25.5651556 31.2594975,24.7560691 30.30111,24.6580938" id="Fill-4" fill="#00A4EC" mask="url(#mask-4)"></path>
            </g>
            <path d="M31.3508475,45.1196049 C24.2759475,45.1196049 18.5193225,39.3438025 18.5193225,32.2453333 C18.5193225,25.1468642 24.2759475,19.3710617 31.3508475,19.3710617 C38.4257475,19.3710617 44.1823725,25.1468642 44.1823725,32.2453333 C44.1823725,39.3438025 38.4257475,45.1196049 31.3508475,45.1196049" id="Fill-7" fill="#ECF0F1"></path>
            <path d="M29.8773562,37.5177481 C29.3977687,37.5177481 28.9166062,37.3336494 28.5496312,36.9654519 L24.7428562,33.1459951 C24.0096937,32.4103901 24.0096937,31.2173037 24.7428562,30.4816988 C25.4760187,29.7460938 26.6651437,29.7460938 27.3990937,30.4816988 L29.8773562,32.9690074 L35.3032312,27.5258469 C36.0363937,26.790242 37.2255187,26.790242 37.9586812,27.5258469 C38.6918437,28.2606617 38.6918437,29.4537481 37.9586812,30.1901432 L31.2058687,36.9654519 C30.8388937,37.3336494 30.3577312,37.5177481 29.8773562,37.5177481" id="Fill-9" fill="#00A4EC"></path>
            <path d="M31.3508475,20.9607111 C25.149285,20.9607111 20.10456,26.0230321 20.10456,32.2452543 C20.10456,38.4674765 25.149285,43.5297975 31.3508475,43.5297975 C37.55241,43.5297975 42.5979225,38.4674765 42.5979225,32.2452543 C42.5979225,26.0230321 37.55241,20.9607111 31.3508475,20.9607111 M31.3508475,47.2978963 C23.07816,47.2978963 16.348185,40.5455012 16.348185,32.2452543 C16.348185,23.9450074 23.07816,17.1918222 31.3508475,17.1918222 C39.623535,17.1918222 46.35351,23.9450074 46.35351,32.2452543 C46.35351,40.5455012 39.623535,47.2978963 31.3508475,47.2978963" id="Fill-11" fill="#BDC3C7"></path>
            <path d="M31.3515562,19.3711407 L31.3515562,45.119684 C38.4264562,45.119684 44.1822937,39.3438815 44.1822937,32.2454123 C44.1822937,25.1469432 38.4264562,19.3711407 31.3515562,19.3711407" id="Fill-13" fill="#FFFFFF"></path>
            <path d="M31.3515562,17.1929284 L31.3515562,20.9610272 C37.5531187,20.9618173 42.5978437,26.0233481 42.5978437,32.2455704 C42.5978437,38.4677926 37.5531187,43.5301136 31.3515562,43.5301136 L31.3515562,47.2990025 C39.6242437,47.2982123 46.3534312,40.5458173 46.3534312,32.2455704 C46.3534312,23.9453235 39.6242437,17.1929284 31.3515562,17.1929284" id="Fill-15" fill="#001536"></path>
            <path d="M35.3029163,27.5254519 L31.3512412,31.4910815 L31.3512412,36.8196741 L37.9583663,30.1897481 C38.6923163,29.4541432 38.6923163,28.2618469 37.9583663,27.5254519 C37.2252038,26.7898469 36.0368663,26.7898469 35.3029163,27.5254519" id="Fill-17" fill="#00A4EC"></path>
        </g>
    </g>
</svg>