<?xml version="1.0" encoding="UTF-8"?>
<svg width="39px" height="39px" viewBox="0 0 39 39" version="1.1" xmlns="http://www.w3.org/2000/svg" xmlns:xlink="http://www.w3.org/1999/xlink">
    <!-- Generator: Sketch 56.3 (81716) - https://sketch.com -->
    <title>YouTube Icon</title>
    <desc>Created with Sketch.</desc>
    <g id="YouTube-Icon" stroke="none" stroke-width="1" fill="none" fill-rule="evenodd">
        <path d="M15.6127881,25.4999167 L15.6127881,13.8065987 L25.7639456,19.653053 L15.6127881,25.4999167 Z M38.1966162,10.272771 C37.7471094,8.60206311 36.4297024,7.28506547 34.7594038,6.83514927 C31.7074245,6 19.4999167,6 19.4999167,6 C19.4999167,6 7.29240879,6 4.24042947,6.80321709 C2.60206311,7.25313329 1.2527239,8.6024725 0.803217091,10.272771 C-3.55271368e-15,13.324341 -3.55271368e-15,19.653053 -3.55271368e-15,19.653053 C-3.55271368e-15,19.653053 -3.55271368e-15,26.0136972 0.803217091,29.0337443 C1.2527239,30.7040429 2.57013094,32.0214499 4.24083886,32.4709567 C7.32434097,33.306106 19.500326,33.306106 19.500326,33.306106 C19.500326,33.306106 31.7074245,33.306106 34.7594038,32.5028889 C36.4301118,32.0533821 37.7471094,30.7359751 38.1970256,29.0656765 C39,26.0136972 39,19.6853946 39,19.6853946 C39,19.6853946 39.0321749,13.324341 38.1966162,10.272771 L38.1966162,10.272771 Z" id="Fill-1" fill="#FEFEFE"></path>
    </g>
</svg>